<svg id="Layer_1" data-name="Layer 1" xmlns="http://www.w3.org/2000/svg" viewBox="0 0 579.01 352.98"><defs><style>.cls-1{fill:#a0e9fc;}</style></defs><g id="Layer_7" data-name="Layer 7"><path class="cls-1" d="M1,38a1,1,0,0,0,.7-.28l37-36A1,1,0,0,0,37.3.28l-37,36a1,1,0,0,0,0,1.41A1,1,0,0,0,1,38Z"/><path class="cls-1" d="M1,73a1,1,0,0,0,.7-.28L37.61,37.76l.08,0,37-36A1,1,0,0,0,73.3.28L37.38,35.22l-.08.05-37,36a1,1,0,0,0,0,1.41A1,1,0,0,0,1,73Z"/><path class="cls-1" d="M577.29,35.27,541.38,70.22l-.08,0-35.92,35-.08,0-35.92,35-.08.05-35.92,34.95-.08.05-35.92,34.95-.08.05-35.92,34.95-.08.05-35.92,35-.08,0-35.92,35-.08,0-37,36a1,1,0,0,0,0,1.41,1,1,0,0,0,1.42,0l35.92-34.95.08-.05,35.92-34.95.08-.05,35.92-34.95.08-.05,35.92-34.95.08-.05,35.92-34.95.08-.05,35.92-34.95.08-.05,35.92-34.95.08,0,35.92-34.95.08,0,37-36a1,1,0,0,0,0-1.41A1,1,0,0,0,577.29,35.27Z"/><path class="cls-1" d="M1,108a1,1,0,0,0,.7-.28L37.61,72.76l.08-.05L73.61,37.76l.08,0,37-36A1,1,0,0,0,109.3.28L73.38,35.22l-.08.05L37.38,70.22l-.08,0-37,36a1,1,0,0,0,0,1.41A1,1,0,0,0,1,108Z"/><path class="cls-1" d="M577.29,70.27l-35.92,35-.08,0-35.92,35-.08.05-35.92,34.95-.08.05-35.92,34.95-.08.05-35.92,34.95-.08.05-35.92,35-.08,0-35.92,35-.08,0-37,36a1,1,0,0,0,0,1.41,1,1,0,0,0,1.42,0l35.92-34.95.08-.05,35.92-34.95.08-.05,35.92-34.95.08-.05,35.92-34.95.08-.05,35.92-34.95.08-.05,35.92-34.95.08-.05,35.92-34.95.08,0,37-36a1,1,0,0,0,0-1.41A1,1,0,0,0,577.29,70.27Z"/><path class="cls-1" d="M1,143a1,1,0,0,0,.7-.28l35.92-34.95.08-.05L73.61,72.76l.08-.05,35.92-34.95.08,0,37-36A1,1,0,0,0,145.3.28L109.38,35.22l-.08.05L73.38,70.22l-.08,0-35.92,35-.08,0-37,36a1,1,0,0,0,0,1.41A1,1,0,0,0,1,143Z"/><path class="cls-1" d="M577.29,105.27l-35.92,35-.08.05-35.92,34.95-.08.05-35.92,34.95-.08.05-35.92,34.95-.08.05-35.92,35-.08,0-35.92,35-.08,0-37,36a1,1,0,0,0,0,1.41,1,1,0,0,0,1.42,0l35.92-34.95.08-.05,35.92-34.95.08-.05,35.92-34.95.08-.05,35.92-34.95.08-.05,35.92-34.95.08-.05,35.92-34.95.08-.05,37-36a1,1,0,0,0,0-1.41A1,1,0,0,0,577.29,105.27Z"/><path class="cls-1" d="M1,178a1,1,0,0,0,.7-.28l35.92-35,.08,0,35.92-34.95.08-.05,35.92-34.95.08-.05,35.92-34.95.08,0,37-36A1,1,0,0,0,181.3.28L145.38,35.22l-.08.05L109.38,70.22l-.08,0-35.92,35-.08,0-35.92,35-.08.05-37,36a1,1,0,0,0,0,1.41A1,1,0,0,0,1,178Z"/><path class="cls-1" d="M577.29,140.27l-35.92,34.95-.08.05-35.92,34.95-.08.05-35.92,34.95-.08.05-35.92,35-.08,0-35.92,35-.08,0-37,36a1,1,0,0,0,0,1.41,1,1,0,0,0,1.42,0l35.92-34.95.08-.05,35.92-34.95.08-.05,35.92-34.95.08-.05,35.92-34.95.08-.05,35.92-34.95.08-.05,37-36a1,1,0,0,0,0-1.41A1,1,0,0,0,577.29,140.27Z"/><path class="cls-1" d="M1,213a1,1,0,0,0,.7-.28l35.92-35,.08,0,35.92-35,.08,0,35.92-34.95.08-.05,35.92-34.95.08-.05,35.92-34.95.08,0,37-36A1,1,0,0,0,217.3.28L181.38,35.22l-.08.05L145.38,70.22l-.08,0-35.92,35-.08,0-35.92,35-.08.05L37.38,175.22l-.08.05-37,36a1,1,0,0,0,0,1.41A1,1,0,0,0,1,213Z"/><path class="cls-1" d="M577.29,175.27l-35.92,34.95-.08.05-35.92,34.95-.08.05-35.92,35-.08,0-35.92,35-.08,0-37,36a1,1,0,0,0,0,1.41,1,1,0,0,0,1.42,0l35.92-34.95.08-.05,35.92-34.95.08-.05,35.92-34.95.08-.05,35.92-34.95.08-.05,37-36a1,1,0,0,0,0-1.41A1,1,0,0,0,577.29,175.27Z"/><path class="cls-1" d="M1,248a1,1,0,0,0,.7-.28l35.92-35,.08,0,35.92-35,.08,0,35.92-35,.08,0,35.92-34.95.08-.05,35.92-34.95.08-.05,35.92-34.95.08,0,37-36A1,1,0,0,0,253.3.28L217.38,35.22l-.08.05L181.38,70.22l-.08,0-35.92,35-.08,0-35.92,35-.08.05L73.38,175.22l-.08.05L37.38,210.22l-.08.05-37,36a1,1,0,0,0,0,1.41A1,1,0,0,0,1,248Z"/><path class="cls-1" d="M577.29,210.27l-35.92,34.95-.08.05-35.92,35-.08,0-35.92,35-.08,0-37,36a1,1,0,0,0,0,1.41,1,1,0,0,0,1.42,0l35.92-34.95.08-.05,35.92-34.95.08-.05,35.92-34.95.08-.05,37-36a1,1,0,0,0,0-1.41A1,1,0,0,0,577.29,210.27Z"/><path class="cls-1" d="M1,283a1,1,0,0,0,.7-.28l35.92-34.95.08,0,35.92-35,.08,0,35.92-35,.08,0,35.92-35,.08,0,35.92-34.95.08-.05,35.92-34.95.08-.05,35.92-34.95.08,0,37-36A1,1,0,0,0,289.3.28L253.38,35.22l-.08.05L217.38,70.22l-.08,0-35.92,35-.08,0-35.92,35-.08.05-35.92,34.95-.08.05L73.38,210.22l-.08.05L37.38,245.22l-.08.05-37,36a1,1,0,0,0,0,1.41A1,1,0,0,0,1,283Z"/><path class="cls-1" d="M577.29,245.27l-35.92,35-.08,0-35.92,35-.08,0-37,36a1,1,0,0,0,0,1.41,1,1,0,0,0,1.42,0l35.92-34.95.08-.05,35.92-34.95.08-.05,37-36a1,1,0,0,0,0-1.41A1,1,0,0,0,577.29,245.27Z"/><path class="cls-1" d="M1,318a1,1,0,0,0,.7-.28l35.92-34.95.08-.05,35.92-34.95.08,0,35.92-35,.08,0,35.92-35,.08,0,35.92-35,.08,0,35.92-34.95.08-.05,35.92-34.95.08-.05,35.92-34.95.08,0,37-36A1,1,0,0,0,325.3.28L289.38,35.22l-.08.05L253.38,70.22l-.08,0-35.92,35-.08,0-35.92,35-.08.05-35.92,34.95-.08.05-35.92,34.95-.08.05L73.38,245.22l-.08.05-35.92,35-.08,0-37,36a1,1,0,0,0,0,1.41A1,1,0,0,0,1,318Z"/><path class="cls-1" d="M37.69,317.71l35.92-34.95.08-.05,35.92-34.95.08,0,35.92-35,.08,0,35.92-35,.08,0,35.92-35,.08,0,35.92-34.95.08-.05,35.92-34.95.08-.05,35.92-34.95.08,0,37-36A1,1,0,0,0,361.3.28L325.38,35.22l-.08.05L289.38,70.22l-.08,0-35.92,35-.08,0-35.92,35-.08.05-35.92,34.95-.08.05-35.92,34.95-.08.05-35.92,34.95-.08.05-35.92,35-.08,0-35.92,35-.08,0-37,36a1,1,0,0,0,0,1.41,1,1,0,0,0,1.42,0l35.92-34.95Z"/><path class="cls-1" d="M73.69,317.71l35.92-34.95.08-.05,35.92-34.95.08,0,35.92-35,.08,0,35.92-35,.08,0,35.92-35,.08,0,35.92-34.95.08-.05,35.92-34.95.08-.05,35.92-34.95.08,0,37-36A1,1,0,0,0,397.3.28L361.38,35.22l-.08.05L325.38,70.22l-.08,0-35.92,35-.08,0-35.92,35-.08.05-35.92,34.95-.08.05-35.92,34.95-.08.05-35.92,34.95-.08.05-35.92,35-.08,0-35.92,35-.08,0-37,36a1,1,0,0,0,0,1.41,1,1,0,0,0,1.42,0l35.92-34.95Z"/><path class="cls-1" d="M109.69,317.71l35.92-34.95.08-.05,35.92-34.95.08,0,35.92-35,.08,0,35.92-35,.08,0,35.92-35,.08,0,35.92-34.95.08-.05,35.92-34.95.08-.05,35.92-34.95.08,0,37-36A1,1,0,0,0,433.3.28L397.38,35.22l-.08.05L361.38,70.22l-.08,0-35.92,35-.08,0-35.92,35-.08.05-35.92,34.95-.08.05-35.92,34.95-.08.05-35.92,34.95-.08.05-35.92,35-.08,0-35.92,35-.08,0-37,36a1,1,0,0,0,0,1.41,1,1,0,0,0,1.42,0l35.92-34.95Z"/><path class="cls-1" d="M145.69,317.71l35.92-34.95.08-.05,35.92-34.95.08,0,35.92-35,.08,0,35.92-35,.08,0,35.92-35,.08,0,35.92-34.95.08-.05,35.92-34.95.08-.05,35.92-34.95.08,0,37-36A1,1,0,0,0,469.3.28L433.38,35.22l-.08.05L397.38,70.22l-.08,0-35.92,35-.08,0-35.92,35-.08.05-35.92,34.95-.08.05-35.92,34.95-.08.05-35.92,34.95-.08.05-35.92,35-.08,0-35.92,35-.08,0-37,36a1,1,0,0,0,0,1.41,1,1,0,0,0,1.42,0l35.92-34.95Z"/><path class="cls-1" d="M181.69,317.71l35.92-34.95.08-.05,35.92-34.95.08,0,35.92-35,.08,0,35.92-35,.08,0,35.92-35,.08,0,35.92-34.95.08-.05,35.92-34.95.08-.05,35.92-34.95.08,0,37-36A1,1,0,0,0,505.3.28L469.38,35.22l-.08.05L433.38,70.22l-.08,0-35.92,35-.08,0-35.92,35-.08.05-35.92,34.95-.08.05-35.92,34.95-.08.05-35.92,34.95-.08.05-35.92,35-.08,0-35.92,35-.08,0-37,36a1,1,0,0,0,0,1.41,1,1,0,0,0,1.42,0l35.92-34.95Z"/><path class="cls-1" d="M217.69,317.71l35.92-34.95.08-.05,35.92-34.95.08,0,35.92-35,.08,0,35.92-35,.08,0,35.92-35,.08,0,35.92-34.95.08-.05,35.92-34.95.08-.05,35.92-34.95.08,0,37-36A1,1,0,0,0,541.3.28L505.38,35.22l-.08.05L469.38,70.22l-.08,0-35.92,35-.08,0-35.92,35-.08.05-35.92,34.95-.08.05-35.92,34.95-.08.05-35.92,34.95-.08.05-35.92,35-.08,0-35.92,35-.08,0-37,36a1,1,0,0,0,0,1.41,1,1,0,0,0,1.42,0l35.92-34.95Z"/><path class="cls-1" d="M253.69,317.71l35.92-34.95.08-.05,35.92-34.95.08,0,35.92-35,.08,0,35.92-35,.08,0,35.92-35,.08,0,35.92-34.95.08-.05,35.92-34.95.08-.05,35.92-34.95.08,0,37-36A1,1,0,0,0,577.3.28L541.38,35.22l-.08.05L505.38,70.22l-.08,0-35.92,35-.08,0-35.92,35-.08.05-35.92,34.95-.08.05-35.92,34.95-.08.05-35.92,34.95-.08.05-35.92,35-.08,0-35.92,35-.08,0-37,36a1,1,0,0,0,0,1.41,1,1,0,0,0,1.42,0l35.92-34.95Z"/><path class="cls-1" d="M577.29,280.27l-35.92,35-.08,0-37,36a1,1,0,0,0,0,1.41,1,1,0,0,0,1.42,0l35.92-34.95.08-.05,37-36a1,1,0,0,0,0-1.41A1,1,0,0,0,577.29,280.27Z"/><path class="cls-1" d="M577.29,315.27l-37,36a1,1,0,0,0,0,1.41,1,1,0,0,0,1.42,0l37-36a1,1,0,0,0,0-1.41A1,1,0,0,0,577.29,315.27Z"/></g></svg>